<mxfile host="app.diagrams.net" agent="Mozilla/5.0 (X11; Ubuntu; Linux x86_64; rv:136.0) Gecko/20100101 Firefox/136.0" version="26.1.1" pages="5">
  <diagram name="Page-1" id="RCUC4r-fpvVFj46XkOST">
    <mxGraphModel dx="1344" dy="727" grid="1" gridSize="10" guides="1" tooltips="1" connect="1" arrows="1" fold="1" page="1" pageScale="1" pageWidth="850" pageHeight="1100" math="0" shadow="0">
      <root>
        <mxCell id="0" />
        <mxCell id="1" parent="0" />
        <mxCell id="xSmrXfBXZq4ylH9YBljp-10" value="&lt;font style=&quot;font-size: 15px;&quot;&gt;getStudents()&lt;/font&gt;" style="ellipse;whiteSpace=wrap;html=1;" parent="1" vertex="1">
          <mxGeometry x="127.5" y="330" width="155" height="80" as="geometry" />
        </mxCell>
        <mxCell id="xSmrXfBXZq4ylH9YBljp-12" style="edgeStyle=orthogonalEdgeStyle;rounded=0;orthogonalLoop=1;jettySize=auto;html=1;entryX=1;entryY=0.5;entryDx=0;entryDy=0;" parent="1" source="xSmrXfBXZq4ylH9YBljp-11" target="xSmrXfBXZq4ylH9YBljp-16" edge="1">
          <mxGeometry relative="1" as="geometry">
            <mxPoint x="320" y="175" as="targetPoint" />
          </mxGeometry>
        </mxCell>
        <mxCell id="xSmrXfBXZq4ylH9YBljp-15" style="edgeStyle=orthogonalEdgeStyle;rounded=0;orthogonalLoop=1;jettySize=auto;html=1;" parent="1" source="xSmrXfBXZq4ylH9YBljp-11" edge="1">
          <mxGeometry relative="1" as="geometry">
            <mxPoint x="540" y="180" as="targetPoint" />
          </mxGeometry>
        </mxCell>
        <mxCell id="xSmrXfBXZq4ylH9YBljp-11" value="" style="shape=image;editableCssRules=.*;verticalLabelPosition=bottom;labelBackgroundColor=default;verticalAlign=top;aspect=fixed;imageAspect=0;image=data:image/svg+xml,PHN2ZyB4bWxucz0iaHR0cDovL3d3dy53My5vcmcvMjAwMC9zdmciIHZpZXdCb3g9Ii0wLjUgLTAuNSAyNS44NjcgMjgiIGhlaWdodD0iMjgiIHdpZHRoPSIyNS44NjciPiYjeGE7CSAgPHN0eWxlIHR5cGU9InRleHQvY3NzIj4uc3QwIHsgc3RvcC1jb2xvcjogcmdiKDM1LCAxNDksIDI1NSk7IH0gLnN0MSB7IHN0b3AtY29sb3I6IHJnYigwLCA4NywgMjEwKTsgfSA8L3N0eWxlPiYjeGE7CTxkZWZzPiYjeGE7CQk8bGluZWFyR3JhZGllbnQgZ3JhZGllbnRVbml0cz0idXNlclNwYWNlT25Vc2UiIHkyPSIyMy42MTMiIHgyPSIyMy4yMjciIHkxPSIzLjQ3NCIgeDE9IjEuODQ2IiBpZD0iQSI+JiN4YTsJCQk8c3RvcCBjbGFzcz0ic3QwIi8+JiN4YTsJCQk8c3RvcCBjbGFzcz0ic3QxIiBvZmZzZXQ9IjEiLz4mI3hhOwkJPC9saW5lYXJHcmFkaWVudD4mI3hhOwk8L2RlZnM+JiN4YTsJPHBhdGggZmlsbD0idXJsKCNBKSIgZD0iTTEzLjM5IDI3LjVoLTEuOTE1Yy0uNjU2IDAtMS4yNTctLjIxOS0xLjgwMy0uNjU2YTIuNDYgMi40NiAwIDAgMS0uOTMxLTEuNTg1bC0uMzgzLTEuODA0LTIuMzUtMS40MjMtMS42NDEuNzFhMy42MSAzLjYxIDAgMCAxLTEuMDQuMTY1Yy0uNTA5IDAtMS4wMDMtLjEyOC0xLjQ3Ny0uMzgzLS40NTItLjI3MS0uODEzLS42NzEtMS4wMzgtMS4xNDhsLTEuMDM5LTIuMDIzYy0uMTY5LS4zNzktLjI2Mi0uNzg5LS4yNzMtMS4yMDRhMi43NSAyLjc1IDAgMCAxIDEuMTQ4LTIuMjk2bDEuMjU4LS45Mjl2LTIuODQ1bC0xLjMxMi0uOTgzQy0uMTM2IDEwLjU0Ni0uNSA5Ljc5OS0uNSA4Ljg1MmMwLS4zNjYuMDkxLS43NjcuMjczLTEuMjA0bDEuMDQtMi4wMjNjLjI1NS0uNTExLjYtLjg5MyAxLjAzOC0xLjE0OC40NzQtLjI1NS45NjgtLjM4MyAxLjQ3Ny0uMzgzLjQwMiAwIC43NDcuMDc0IDEuMDQuMjE5bDEuNjQxLjY1NiAyLjM1LTEuNDIzLjM4My0xLjgwMkEyLjY4IDIuNjggMCAwIDEgOS43MjcuMTU2YTIuNjEgMi42MSAwIDAgMSAxLjc1LS42NTZoMS45MTNhMi42MSAyLjYxIDAgMCAxIDEuNzUuNjU2Yy41MTEuNDAzLjg0LjkyOS45ODUgMS41ODZsLjMyNyAxLjgwNiAyLjQwNiAxLjQyMSAxLjY0Mi0uNjU2Yy4yOTEtLjE0NS42MzctLjIxOSAxLjA0LS4yMTlhMi43NyAyLjc3IDAgMCAxIDEuNDIxLjM4M2MuNDczLjI1NS44NC42MzcgMS4wOTQgMS4xNDhsLjk4NSAyLjAyM2MuMjE3LjM2Ni4zMjcuNzg0LjMyNyAxLjI1OCAwIC45MS0uMzgzIDEuNjQyLTEuMTQ4IDIuMTg4bC0xLjMxMi45ODV2Mi44NDRsMS4zMTMuOTI4Yy43NjUuNTg1IDEuMTQ4IDEuMzMyIDEuMTQ4IDIuMjQzIDAgLjQzOC0uMTEuODU4LS4zMjkgMS4yNThsLS45ODMgMi4wMjNjLS4yNTYuNTExLS42MTkuODkyLTEuMDk0IDEuMTQ4LS40MzcuMjU2LS45MS4zODMtMS40MjMuMzgzLS4zNjQgMC0uNzEtLjA1NC0xLjAzOC0uMTY1bC0xLjY0Mi0uNzEtMi40MDYgMS40MjMtLjMyNyAxLjgwMmMtLjE0Ny42NTgtLjQ3NCAxLjE4Ni0uOTg1IDEuNTg3YTIuNjEgMi42MSAwIDAgMS0xLjc1LjY1NnptLTcuMzgzLTguMjU4Yy40NzQgMCAuOTQ5LjE0NyAxLjQyMy40MzhsMi40MDYgMS40MjNjLjczLjQzOCAxLjE0OCAxLjA0IDEuMjU4IDEuODA0bC4zODIgMS44MDRoMS45MTVsLjMyOS0xLjgwNGMuMTgyLS44MDIuNjItMS40MDQgMS4zMTMtMS44MDRsMi4zNTItMS40MjNhMy4wNiAzLjA2IDAgMCAxIDEuNTI5LS40MzdjLjE4NCAwIC4zNDYuMDE3LjQ5NC4wNTRhNC4xNyA0LjE3IDAgMCAxIC40OTIuMTY1bDEuNjQyLjY1Ni45ODMtMi4wMjMtMS4yNTgtLjkyOWMtLjc2NS0uNTg0LTEuMTQ4LTEuMzMtMS4xNDgtMi4yNDJ2LTIuODQ1YzAtLjkxLjM4My0xLjY1NyAxLjE0OC0yLjI0bDEuMjU4LS45MzEtLjk4NS0yLjAyMy0xLjY0LjcxYy0uMzM1LjExMS0uNjg2LjE2Ni0xLjA0LjE2NS0uNTgzIDAtMS4wNzUtLjEyOC0xLjQ3Ny0uMzgzbC0yLjM1LTEuNDc3YTIuNjggMi42OCAwIDAgMS0xLjMxMi0xLjgwNEwxMy4zOSAyLjI5aC0xLjkxNWwtLjM4MiAxLjgwNGMtLjExLjc2Ni0uNTI4IDEuMzY3LTEuMjU4IDEuODA0TDcuNDgzIDcuMzc1Yy0uNDAxLjI1NS0uODkzLjM4My0xLjQ3NS4zODMtLjMyOSAwLS42OTMtLjA1Ni0xLjA5NC0uMTY1bC0xLjY0MS0uNzEtLjk4NSAyLjAyMyAxLjMxMy45MjljLjc2Ny41ODUgMS4xNSAxLjMzIDEuMTUgMi4yNDR2Mi44NDRjMCAuOTEtLjM4MyAxLjY1Ny0xLjE0OCAyLjI0bC0xLjMxMi45MzEgMS4wMzggMi4wMjMgMS42NDEtLjY1NmMuMjktLjE0NS42MzctLjIxOSAxLjA0LS4yMTl6bTYuNC0uMTY1YTUuNTcgNS41NyAwIDAgMS0yLjE4Ny0uNDM3Yy0uNjUzLS4yODktMS4yNDYtLjY5Ny0xLjc1LTEuMjAyYTUuNzcgNS43NyAwIDAgMS0xLjIwNC0xLjc1IDUuNTggNS41OCAwIDAgMS0uNDM3LTIuMTg3IDUuMjEgNS4yMSAwIDAgMSAuNDM4LTIuMTMzYy4yOTItLjY5My42OTMtMS4yOTUgMS4yMDQtMS44MDRzMS4wOTQtLjkxIDEuNzUtMS4yMDRhNS42IDUuNiAwIDAgMSAyLjE4OC0uNDM3Yy43NjUgMCAxLjQ5NS4xNDcgMi4xODguNDM4czEuMjk1LjY5MyAxLjgwNCAxLjIwNC45MSAxLjExMSAxLjIwNCAxLjgwNGMuMjkxLjY1Ni40MzggMS4zNjguNDM4IDIuMTMzYTUuNiA1LjYgMCAwIDEtLjQzNyAyLjE4OGMtLjI5LjY1My0uNjk4IDEuMjQ2LTEuMjA0IDEuNzUtLjUxMS41MTEtMS4xMTEuOTEtMS44MDQgMS4yMDRzLTEuNDIzLjQzNi0yLjE4Ny40MzZ6bTAtOC4zNjVjLS43NjcgMC0xLjQyMy4yNzEtMS45NjkuODE5LS4yNjQuMjU1LS40NzMuNTYxLS42MTQuODk5cy0uMjExLjcwMy0uMjA2IDEuMDY5YzAgLjc2Ny4yNzMgMS40MjMuODIxIDEuOTY5czEuMjAyLjgyMSAxLjk2OS44MjFjLjgwMiAwIDEuNDc3LS4yNzMgMi4wMjMtLjgyMXMuODIxLTEuMjA0LjgyMS0xLjk2OS0uMjczLTEuNDIzLS44MjEtMS45NjlhMi43NSAyLjc1IDAgMCAwLS45MjctLjYyYy0uMzQ4LS4xNDEtLjcyMS0uMjA4LTEuMDk2LS4xOTl6Ii8+JiN4YTs8L3N2Zz4=;" parent="1" vertex="1">
          <mxGeometry x="412" y="155.23000000000002" width="46" height="49.54" as="geometry" />
        </mxCell>
        <mxCell id="xSmrXfBXZq4ylH9YBljp-14" value="removeDuplicate" style="ellipse;whiteSpace=wrap;html=1;aspect=fixed;" parent="1" vertex="1">
          <mxGeometry x="520" y="127.5" width="105" height="105" as="geometry" />
        </mxCell>
        <mxCell id="xSmrXfBXZq4ylH9YBljp-16" value="Students Data" style="shape=table;startSize=30;container=1;collapsible=0;childLayout=tableLayout;strokeColor=default;fontSize=16;" parent="1" vertex="1">
          <mxGeometry x="90" y="100" width="230" height="160" as="geometry" />
        </mxCell>
        <mxCell id="xSmrXfBXZq4ylH9YBljp-17" value="" style="shape=tableRow;horizontal=0;startSize=0;swimlaneHead=0;swimlaneBody=0;strokeColor=inherit;top=0;left=0;bottom=0;right=0;collapsible=0;dropTarget=0;fillColor=none;points=[[0,0.5],[1,0.5]];portConstraint=eastwest;fontSize=16;" parent="xSmrXfBXZq4ylH9YBljp-16" vertex="1">
          <mxGeometry y="30" width="230" height="43" as="geometry" />
        </mxCell>
        <mxCell id="xSmrXfBXZq4ylH9YBljp-18" value="name" style="shape=partialRectangle;html=1;whiteSpace=wrap;connectable=0;strokeColor=inherit;overflow=hidden;fillColor=none;top=0;left=0;bottom=0;right=0;pointerEvents=1;fontSize=16;" parent="xSmrXfBXZq4ylH9YBljp-17" vertex="1">
          <mxGeometry width="73" height="43" as="geometry">
            <mxRectangle width="73" height="43" as="alternateBounds" />
          </mxGeometry>
        </mxCell>
        <mxCell id="xSmrXfBXZq4ylH9YBljp-19" value="email" style="shape=partialRectangle;html=1;whiteSpace=wrap;connectable=0;strokeColor=inherit;overflow=hidden;fillColor=none;top=0;left=0;bottom=0;right=0;pointerEvents=1;fontSize=16;" parent="xSmrXfBXZq4ylH9YBljp-17" vertex="1">
          <mxGeometry x="73" width="93" height="43" as="geometry">
            <mxRectangle width="93" height="43" as="alternateBounds" />
          </mxGeometry>
        </mxCell>
        <mxCell id="xSmrXfBXZq4ylH9YBljp-20" value="issued" style="shape=partialRectangle;html=1;whiteSpace=wrap;connectable=0;strokeColor=inherit;overflow=hidden;fillColor=none;top=0;left=0;bottom=0;right=0;pointerEvents=1;fontSize=16;" parent="xSmrXfBXZq4ylH9YBljp-17" vertex="1">
          <mxGeometry x="166" width="64" height="43" as="geometry">
            <mxRectangle width="64" height="43" as="alternateBounds" />
          </mxGeometry>
        </mxCell>
        <mxCell id="xSmrXfBXZq4ylH9YBljp-21" value="" style="shape=tableRow;horizontal=0;startSize=0;swimlaneHead=0;swimlaneBody=0;strokeColor=inherit;top=0;left=0;bottom=0;right=0;collapsible=0;dropTarget=0;fillColor=none;points=[[0,0.5],[1,0.5]];portConstraint=eastwest;fontSize=16;" parent="xSmrXfBXZq4ylH9YBljp-16" vertex="1">
          <mxGeometry y="73" width="230" height="44" as="geometry" />
        </mxCell>
        <mxCell id="xSmrXfBXZq4ylH9YBljp-22" value="user1" style="shape=partialRectangle;html=1;whiteSpace=wrap;connectable=0;strokeColor=inherit;overflow=hidden;fillColor=none;top=0;left=0;bottom=0;right=0;pointerEvents=1;fontSize=16;" parent="xSmrXfBXZq4ylH9YBljp-21" vertex="1">
          <mxGeometry width="73" height="44" as="geometry">
            <mxRectangle width="73" height="44" as="alternateBounds" />
          </mxGeometry>
        </mxCell>
        <mxCell id="xSmrXfBXZq4ylH9YBljp-23" value="user1.com" style="shape=partialRectangle;html=1;whiteSpace=wrap;connectable=0;strokeColor=inherit;overflow=hidden;fillColor=none;top=0;left=0;bottom=0;right=0;pointerEvents=1;fontSize=16;" parent="xSmrXfBXZq4ylH9YBljp-21" vertex="1">
          <mxGeometry x="73" width="93" height="44" as="geometry">
            <mxRectangle width="93" height="44" as="alternateBounds" />
          </mxGeometry>
        </mxCell>
        <mxCell id="xSmrXfBXZq4ylH9YBljp-24" value="false" style="shape=partialRectangle;html=1;whiteSpace=wrap;connectable=0;strokeColor=inherit;overflow=hidden;fillColor=none;top=0;left=0;bottom=0;right=0;pointerEvents=1;fontSize=16;" parent="xSmrXfBXZq4ylH9YBljp-21" vertex="1">
          <mxGeometry x="166" width="64" height="44" as="geometry">
            <mxRectangle width="64" height="44" as="alternateBounds" />
          </mxGeometry>
        </mxCell>
        <mxCell id="xSmrXfBXZq4ylH9YBljp-25" value="" style="shape=tableRow;horizontal=0;startSize=0;swimlaneHead=0;swimlaneBody=0;strokeColor=inherit;top=0;left=0;bottom=0;right=0;collapsible=0;dropTarget=0;fillColor=none;points=[[0,0.5],[1,0.5]];portConstraint=eastwest;fontSize=16;" parent="xSmrXfBXZq4ylH9YBljp-16" vertex="1">
          <mxGeometry y="117" width="230" height="43" as="geometry" />
        </mxCell>
        <mxCell id="xSmrXfBXZq4ylH9YBljp-26" value="user2" style="shape=partialRectangle;html=1;whiteSpace=wrap;connectable=0;strokeColor=inherit;overflow=hidden;fillColor=none;top=0;left=0;bottom=0;right=0;pointerEvents=1;fontSize=16;" parent="xSmrXfBXZq4ylH9YBljp-25" vertex="1">
          <mxGeometry width="73" height="43" as="geometry">
            <mxRectangle width="73" height="43" as="alternateBounds" />
          </mxGeometry>
        </mxCell>
        <mxCell id="xSmrXfBXZq4ylH9YBljp-27" value="&lt;div align=&quot;center&quot;&gt;user2.com&lt;span style=&quot;white-space: pre;&quot;&gt;&#x9;&lt;/span&gt;&lt;/div&gt;" style="shape=partialRectangle;html=1;whiteSpace=wrap;connectable=0;strokeColor=inherit;overflow=hidden;fillColor=none;top=0;left=0;bottom=0;right=0;pointerEvents=1;fontSize=16;align=center;" parent="xSmrXfBXZq4ylH9YBljp-25" vertex="1">
          <mxGeometry x="73" width="93" height="43" as="geometry">
            <mxRectangle width="93" height="43" as="alternateBounds" />
          </mxGeometry>
        </mxCell>
        <mxCell id="xSmrXfBXZq4ylH9YBljp-28" value="true" style="shape=partialRectangle;html=1;whiteSpace=wrap;connectable=0;strokeColor=inherit;overflow=hidden;fillColor=none;top=0;left=0;bottom=0;right=0;pointerEvents=1;fontSize=16;" parent="xSmrXfBXZq4ylH9YBljp-25" vertex="1">
          <mxGeometry x="166" width="64" height="43" as="geometry">
            <mxRectangle width="64" height="43" as="alternateBounds" />
          </mxGeometry>
        </mxCell>
        <mxCell id="xSmrXfBXZq4ylH9YBljp-30" value="" style="endArrow=none;html=1;rounded=0;entryX=0.505;entryY=1.014;entryDx=0;entryDy=0;entryPerimeter=0;exitX=0.5;exitY=0;exitDx=0;exitDy=0;" parent="1" source="xSmrXfBXZq4ylH9YBljp-10" target="xSmrXfBXZq4ylH9YBljp-25" edge="1">
          <mxGeometry width="50" height="50" relative="1" as="geometry">
            <mxPoint x="180" y="320" as="sourcePoint" />
            <mxPoint x="230" y="270" as="targetPoint" />
          </mxGeometry>
        </mxCell>
        <mxCell id="xSmrXfBXZq4ylH9YBljp-31" value="" style="shape=flexArrow;endArrow=classic;html=1;rounded=0;" parent="1" edge="1">
          <mxGeometry width="50" height="50" relative="1" as="geometry">
            <mxPoint x="282.5" y="369.58" as="sourcePoint" />
            <mxPoint x="380" y="369.58" as="targetPoint" />
          </mxGeometry>
        </mxCell>
        <mxCell id="xSmrXfBXZq4ylH9YBljp-33" value="" style="sketch=0;outlineConnect=0;fontColor=#232F3E;gradientColor=none;fillColor=#232F3D;strokeColor=none;dashed=0;verticalLabelPosition=bottom;verticalAlign=top;align=center;html=1;fontSize=12;fontStyle=0;aspect=fixed;pointerEvents=1;shape=mxgraph.aws4.json_script;" parent="1" vertex="1">
          <mxGeometry x="390" y="346" width="39.47" height="54" as="geometry" />
        </mxCell>
        <mxCell id="mi1LhQg32NyUNK3rC3r8-17" value="" style="edgeStyle=orthogonalEdgeStyle;rounded=0;orthogonalLoop=1;jettySize=auto;html=1;" parent="1" source="mi1LhQg32NyUNK3rC3r8-1" edge="1">
          <mxGeometry relative="1" as="geometry">
            <mxPoint x="240.14284415584416" y="732" as="targetPoint" />
          </mxGeometry>
        </mxCell>
        <mxCell id="mi1LhQg32NyUNK3rC3r8-1" value="" style="sketch=0;outlineConnect=0;fillColor=#FF4974;strokeColor=#A50040;dashed=0;verticalLabelPosition=bottom;verticalAlign=top;align=center;html=1;fontSize=12;fontStyle=0;aspect=fixed;pointerEvents=1;shape=mxgraph.aws4.json_script;fontColor=#ffffff;" parent="1" vertex="1">
          <mxGeometry x="100" y="700" width="47.51" height="65" as="geometry" />
        </mxCell>
        <mxCell id="mi1LhQg32NyUNK3rC3r8-7" value="user1" style="shape=partialRectangle;html=1;whiteSpace=wrap;connectable=0;strokeColor=none;overflow=hidden;fillColor=#ffe6cc;top=0;left=0;bottom=0;right=0;pointerEvents=1;fontSize=16;labelBorderColor=none;textShadow=0;strokeWidth=13;" parent="1" vertex="1">
          <mxGeometry x="458" y="348" width="73" height="44" as="geometry">
            <mxRectangle width="73" height="44" as="alternateBounds" />
          </mxGeometry>
        </mxCell>
        <mxCell id="mi1LhQg32NyUNK3rC3r8-8" value="user1.com" style="shape=partialRectangle;html=1;whiteSpace=wrap;connectable=0;strokeColor=none;overflow=hidden;fillColor=#ffe6cc;top=0;left=0;bottom=0;right=0;pointerEvents=1;fontSize=16;labelBorderColor=none;textShadow=0;strokeWidth=13;" parent="1" vertex="1">
          <mxGeometry x="531" y="348" width="93" height="44" as="geometry">
            <mxRectangle width="93" height="44" as="alternateBounds" />
          </mxGeometry>
        </mxCell>
        <mxCell id="mi1LhQg32NyUNK3rC3r8-9" value="false" style="shape=partialRectangle;html=1;whiteSpace=wrap;connectable=0;strokeColor=none;overflow=hidden;fillColor=#ffe6cc;top=0;left=0;bottom=0;right=0;pointerEvents=1;fontSize=16;labelBorderColor=none;textShadow=0;strokeWidth=13;" parent="1" vertex="1">
          <mxGeometry x="624" y="348" width="64" height="44" as="geometry">
            <mxRectangle width="64" height="44" as="alternateBounds" />
          </mxGeometry>
        </mxCell>
        <mxCell id="mi1LhQg32NyUNK3rC3r8-10" value="&lt;font style=&quot;font-size: 15px;&quot;&gt;&lt;b&gt;Trigger&lt;/b&gt;&lt;/font&gt;" style="text;strokeColor=none;align=center;fillColor=none;html=1;verticalAlign=middle;whiteSpace=wrap;rounded=0;" parent="1" vertex="1">
          <mxGeometry x="542.5" y="90" width="60" height="30" as="geometry" />
        </mxCell>
        <mxCell id="mi1LhQg32NyUNK3rC3r8-18" style="edgeStyle=orthogonalEdgeStyle;rounded=0;orthogonalLoop=1;jettySize=auto;html=1;exitX=0.5;exitY=0;exitDx=0;exitDy=0;entryX=0.5;entryY=1;entryDx=0;entryDy=0;" parent="1" target="mi1LhQg32NyUNK3rC3r8-25" edge="1">
          <mxGeometry relative="1" as="geometry">
            <mxPoint x="490" y="640" as="targetPoint" />
            <mxPoint x="294.9949999999999" y="683.75" as="sourcePoint" />
          </mxGeometry>
        </mxCell>
        <mxCell id="mi1LhQg32NyUNK3rC3r8-19" value="&lt;b&gt;YES&lt;/b&gt;" style="text;strokeColor=none;align=center;fillColor=none;html=1;verticalAlign=middle;whiteSpace=wrap;rounded=0;" parent="1" vertex="1">
          <mxGeometry x="240" y="660" width="60" height="30" as="geometry" />
        </mxCell>
        <mxCell id="mi1LhQg32NyUNK3rC3r8-21" value="&lt;b&gt;NO&lt;/b&gt;" style="text;strokeColor=none;align=center;fillColor=none;html=1;verticalAlign=middle;whiteSpace=wrap;rounded=0;" parent="1" vertex="1">
          <mxGeometry x="222.5" y="750" width="60" height="30" as="geometry" />
        </mxCell>
        <mxCell id="mi1LhQg32NyUNK3rC3r8-30" style="edgeStyle=orthogonalEdgeStyle;rounded=0;orthogonalLoop=1;jettySize=auto;html=1;exitX=1;exitY=0.5;exitDx=0;exitDy=0;entryX=0.5;entryY=0;entryDx=0;entryDy=0;" parent="1" source="mi1LhQg32NyUNK3rC3r8-25" target="mi1LhQg32NyUNK3rC3r8-55" edge="1">
          <mxGeometry relative="1" as="geometry">
            <mxPoint x="560" y="770" as="targetPoint" />
          </mxGeometry>
        </mxCell>
        <mxCell id="mi1LhQg32NyUNK3rC3r8-25" value="&lt;b&gt;BADGR API&lt;/b&gt;" style="ellipse;whiteSpace=wrap;html=1;" parent="1" vertex="1">
          <mxGeometry x="429.47" y="570" width="95.5" height="70" as="geometry" />
        </mxCell>
        <mxCell id="mi1LhQg32NyUNK3rC3r8-55" value="Students Data" style="shape=table;startSize=30;container=1;collapsible=0;childLayout=tableLayout;strokeColor=default;fontSize=13;gradientColor=none;perimeterSpacing=1;fontStyle=1" parent="1" vertex="1">
          <mxGeometry x="458" y="710" width="202" height="100" as="geometry" />
        </mxCell>
        <mxCell id="mi1LhQg32NyUNK3rC3r8-56" value="" style="shape=tableRow;horizontal=0;startSize=0;swimlaneHead=0;swimlaneBody=0;strokeColor=inherit;top=0;left=0;bottom=0;right=0;collapsible=0;dropTarget=0;fillColor=none;points=[[0,0.5],[1,0.5]];portConstraint=eastwest;fontSize=16;" parent="mi1LhQg32NyUNK3rC3r8-55" vertex="1">
          <mxGeometry y="30" width="202" height="24" as="geometry" />
        </mxCell>
        <mxCell id="mi1LhQg32NyUNK3rC3r8-57" value="&lt;b&gt;&lt;font style=&quot;font-size: 13px;&quot;&gt;name&lt;/font&gt;&lt;/b&gt;" style="shape=partialRectangle;html=1;whiteSpace=wrap;connectable=0;strokeColor=inherit;overflow=hidden;fillColor=none;top=0;left=0;bottom=0;right=0;pointerEvents=1;fontSize=16;" parent="mi1LhQg32NyUNK3rC3r8-56" vertex="1">
          <mxGeometry width="53" height="24" as="geometry">
            <mxRectangle width="53" height="24" as="alternateBounds" />
          </mxGeometry>
        </mxCell>
        <mxCell id="mi1LhQg32NyUNK3rC3r8-58" value="&lt;b&gt;&lt;font style=&quot;font-size: 14px;&quot;&gt;email&lt;/font&gt;&lt;/b&gt;" style="shape=partialRectangle;html=1;whiteSpace=wrap;connectable=0;strokeColor=inherit;overflow=hidden;fillColor=none;top=0;left=0;bottom=0;right=0;pointerEvents=1;fontSize=16;" parent="mi1LhQg32NyUNK3rC3r8-56" vertex="1">
          <mxGeometry x="53" width="69" height="24" as="geometry">
            <mxRectangle width="69" height="24" as="alternateBounds" />
          </mxGeometry>
        </mxCell>
        <mxCell id="mi1LhQg32NyUNK3rC3r8-59" value="&lt;b&gt;&lt;font style=&quot;font-size: 12px;&quot;&gt;isAssigned&lt;/font&gt;&lt;/b&gt;" style="shape=partialRectangle;html=1;whiteSpace=wrap;connectable=0;strokeColor=inherit;overflow=hidden;fillColor=none;top=0;left=0;bottom=0;right=0;pointerEvents=1;fontSize=16;" parent="mi1LhQg32NyUNK3rC3r8-56" vertex="1">
          <mxGeometry x="122" width="80" height="24" as="geometry">
            <mxRectangle width="80" height="24" as="alternateBounds" />
          </mxGeometry>
        </mxCell>
        <mxCell id="mi1LhQg32NyUNK3rC3r8-60" value="" style="shape=tableRow;horizontal=0;startSize=0;swimlaneHead=0;swimlaneBody=0;strokeColor=inherit;top=0;left=0;bottom=0;right=0;collapsible=0;dropTarget=0;fillColor=none;points=[[0,0.5],[1,0.5]];portConstraint=eastwest;fontSize=16;" parent="mi1LhQg32NyUNK3rC3r8-55" vertex="1">
          <mxGeometry y="54" width="202" height="25" as="geometry" />
        </mxCell>
        <mxCell id="mi1LhQg32NyUNK3rC3r8-61" value="user1" style="shape=partialRectangle;html=1;whiteSpace=wrap;connectable=0;strokeColor=inherit;overflow=hidden;fillColor=none;top=0;left=0;bottom=0;right=0;pointerEvents=1;fontSize=13;" parent="mi1LhQg32NyUNK3rC3r8-60" vertex="1">
          <mxGeometry width="53" height="25" as="geometry">
            <mxRectangle width="53" height="25" as="alternateBounds" />
          </mxGeometry>
        </mxCell>
        <mxCell id="mi1LhQg32NyUNK3rC3r8-62" value="user1.com" style="shape=partialRectangle;html=1;whiteSpace=wrap;connectable=0;strokeColor=inherit;overflow=hidden;fillColor=none;top=0;left=0;bottom=0;right=0;pointerEvents=1;fontSize=13;" parent="mi1LhQg32NyUNK3rC3r8-60" vertex="1">
          <mxGeometry x="53" width="69" height="25" as="geometry">
            <mxRectangle width="69" height="25" as="alternateBounds" />
          </mxGeometry>
        </mxCell>
        <mxCell id="mi1LhQg32NyUNK3rC3r8-63" value="&lt;span style=&quot;color: light-dark(rgb(165, 29, 45), rgb(237, 237, 237));&quot;&gt;true&lt;/span&gt;" style="shape=partialRectangle;html=1;whiteSpace=wrap;connectable=0;strokeColor=inherit;overflow=hidden;fillColor=none;top=0;left=0;bottom=0;right=0;pointerEvents=1;fontSize=13;labelBackgroundColor=none;" parent="mi1LhQg32NyUNK3rC3r8-60" vertex="1">
          <mxGeometry x="122" width="80" height="25" as="geometry">
            <mxRectangle width="80" height="25" as="alternateBounds" />
          </mxGeometry>
        </mxCell>
        <mxCell id="mi1LhQg32NyUNK3rC3r8-64" value="" style="shape=tableRow;horizontal=0;startSize=0;swimlaneHead=0;swimlaneBody=0;strokeColor=inherit;top=0;left=0;bottom=0;right=0;collapsible=0;dropTarget=0;fillColor=none;points=[[0,0.5],[1,0.5]];portConstraint=eastwest;fontSize=16;" parent="mi1LhQg32NyUNK3rC3r8-55" vertex="1">
          <mxGeometry y="79" width="202" height="21" as="geometry" />
        </mxCell>
        <mxCell id="mi1LhQg32NyUNK3rC3r8-65" value="user2" style="shape=partialRectangle;html=1;whiteSpace=wrap;connectable=0;strokeColor=inherit;overflow=hidden;fillColor=none;top=0;left=0;bottom=0;right=0;pointerEvents=1;fontSize=13;" parent="mi1LhQg32NyUNK3rC3r8-64" vertex="1">
          <mxGeometry width="53" height="21" as="geometry">
            <mxRectangle width="53" height="21" as="alternateBounds" />
          </mxGeometry>
        </mxCell>
        <mxCell id="mi1LhQg32NyUNK3rC3r8-66" value="&lt;div align=&quot;center&quot;&gt;user2.com&lt;span style=&quot;white-space: pre;&quot;&gt;&#x9;&lt;/span&gt;&lt;/div&gt;" style="shape=partialRectangle;html=1;whiteSpace=wrap;connectable=0;strokeColor=inherit;overflow=hidden;fillColor=none;top=0;left=0;bottom=0;right=0;pointerEvents=1;fontSize=13;align=center;" parent="mi1LhQg32NyUNK3rC3r8-64" vertex="1">
          <mxGeometry x="53" width="69" height="21" as="geometry">
            <mxRectangle width="69" height="21" as="alternateBounds" />
          </mxGeometry>
        </mxCell>
        <mxCell id="mi1LhQg32NyUNK3rC3r8-67" value="true" style="shape=partialRectangle;html=1;whiteSpace=wrap;connectable=0;strokeColor=inherit;overflow=hidden;fillColor=none;top=0;left=0;bottom=0;right=0;pointerEvents=1;fontSize=13;" parent="mi1LhQg32NyUNK3rC3r8-64" vertex="1">
          <mxGeometry x="122" width="80" height="21" as="geometry">
            <mxRectangle width="80" height="21" as="alternateBounds" />
          </mxGeometry>
        </mxCell>
        <mxCell id="sNIp8ipQFLbHkV2TUHr5-2" value="&lt;b&gt;assignBadge()&lt;/b&gt;" style="rhombus;whiteSpace=wrap;html=1;" vertex="1" parent="1">
          <mxGeometry x="240" y="680" width="100" height="100" as="geometry" />
        </mxCell>
        <mxCell id="fvEH9hPy7Rf0wsZMKyF1-1" value="" style="shape=image;html=1;verticalAlign=top;verticalLabelPosition=bottom;labelBackgroundColor=#ffffff;imageAspect=0;aspect=fixed;image=https://cdn1.iconfinder.com/data/icons/hawcons/32/698401-icon-137-document-certificate-128.png" vertex="1" parent="1">
          <mxGeometry x="510" y="550" width="50" height="50" as="geometry" />
        </mxCell>
      </root>
    </mxGraphModel>
  </diagram>
  <diagram id="cZmWvhyAYMwV94kkcC3-" name="Page-2">
    <mxGraphModel dx="1270" dy="606" grid="1" gridSize="10" guides="1" tooltips="1" connect="1" arrows="1" fold="1" page="1" pageScale="1" pageWidth="850" pageHeight="1100" math="0" shadow="0">
      <root>
        <mxCell id="0" />
        <mxCell id="1" parent="0" />
        <mxCell id="mSlookb_PjLfhGO7pwBZ-8" value="" style="edgeStyle=orthogonalEdgeStyle;rounded=0;orthogonalLoop=1;jettySize=auto;html=1;" parent="1" source="mSlookb_PjLfhGO7pwBZ-4" target="mSlookb_PjLfhGO7pwBZ-7" edge="1">
          <mxGeometry relative="1" as="geometry" />
        </mxCell>
        <mxCell id="mSlookb_PjLfhGO7pwBZ-4" value="" style="html=1;outlineConnect=0;whiteSpace=wrap;fillColor=#ffff99;verticalLabelPosition=bottom;verticalAlign=top;align=center;shape=mxgraph.archimate3.actor;" parent="1" vertex="1">
          <mxGeometry x="90" y="190" width="26.5" height="50" as="geometry" />
        </mxCell>
        <mxCell id="mSlookb_PjLfhGO7pwBZ-10" style="edgeStyle=orthogonalEdgeStyle;rounded=0;orthogonalLoop=1;jettySize=auto;html=1;entryX=0;entryY=0.5;entryDx=0;entryDy=0;" parent="1" source="mSlookb_PjLfhGO7pwBZ-7" target="mSlookb_PjLfhGO7pwBZ-9" edge="1">
          <mxGeometry relative="1" as="geometry" />
        </mxCell>
        <mxCell id="mSlookb_PjLfhGO7pwBZ-7" value="&lt;font style=&quot;font-size: 10px;&quot;&gt;complete tour&lt;/font&gt;" style="whiteSpace=wrap;html=1;verticalAlign=top;fillColor=#ffff99;" parent="1" vertex="1">
          <mxGeometry x="190" y="200" width="80" height="30" as="geometry" />
        </mxCell>
        <mxCell id="mSlookb_PjLfhGO7pwBZ-14" value="" style="edgeStyle=orthogonalEdgeStyle;rounded=0;orthogonalLoop=1;jettySize=auto;html=1;" parent="1" source="mSlookb_PjLfhGO7pwBZ-9" target="mSlookb_PjLfhGO7pwBZ-13" edge="1">
          <mxGeometry relative="1" as="geometry" />
        </mxCell>
        <mxCell id="YZ1pkbpL945tZgqLEuoT-3" style="edgeStyle=orthogonalEdgeStyle;rounded=0;orthogonalLoop=1;jettySize=auto;html=1;exitX=0.5;exitY=1;exitDx=0;exitDy=0;" parent="1" source="mSlookb_PjLfhGO7pwBZ-9" edge="1">
          <mxGeometry relative="1" as="geometry">
            <mxPoint x="344" y="280" as="targetPoint" />
          </mxGeometry>
        </mxCell>
        <mxCell id="mSlookb_PjLfhGO7pwBZ-9" value="&lt;font style=&quot;font-size: 11px;&quot;&gt;already assign&lt;/font&gt;" style="rhombus;whiteSpace=wrap;html=1;" parent="1" vertex="1">
          <mxGeometry x="308.75" y="187.5" width="70" height="55" as="geometry" />
        </mxCell>
        <mxCell id="YZ1pkbpL945tZgqLEuoT-5" value="" style="edgeStyle=orthogonalEdgeStyle;rounded=0;orthogonalLoop=1;jettySize=auto;html=1;" parent="1" source="mSlookb_PjLfhGO7pwBZ-13" target="YZ1pkbpL945tZgqLEuoT-4" edge="1">
          <mxGeometry relative="1" as="geometry" />
        </mxCell>
        <mxCell id="kpY2GIvG_pTw6zMi-w3f-1" style="edgeStyle=orthogonalEdgeStyle;rounded=0;orthogonalLoop=1;jettySize=auto;html=1;exitX=1;exitY=0.5;exitDx=0;exitDy=0;entryX=0;entryY=0.5;entryDx=0;entryDy=0;" edge="1" parent="1" source="mSlookb_PjLfhGO7pwBZ-13" target="TOl49SZNEzs7eLtIcmGD-2">
          <mxGeometry relative="1" as="geometry" />
        </mxCell>
        <mxCell id="mSlookb_PjLfhGO7pwBZ-13" value="&lt;font style=&quot;font-size: 10px;&quot;&gt;assignBadge&lt;/font&gt;" style="rhombus;whiteSpace=wrap;html=1;" parent="1" vertex="1">
          <mxGeometry x="307.5" y="90" width="72.5" height="60" as="geometry" />
        </mxCell>
        <mxCell id="mSlookb_PjLfhGO7pwBZ-18" value="&lt;font style=&quot;font-size: 9px;&quot;&gt;&lt;b&gt;NO&lt;/b&gt;&lt;/font&gt;" style="text;strokeColor=none;align=center;fillColor=none;html=1;verticalAlign=middle;whiteSpace=wrap;rounded=0;" parent="1" vertex="1">
          <mxGeometry x="310" y="167.5" width="30" height="20" as="geometry" />
        </mxCell>
        <mxCell id="mSlookb_PjLfhGO7pwBZ-19" value="&lt;font style=&quot;font-size: 8px;&quot;&gt;&lt;b&gt;YES&lt;/b&gt;&lt;/font&gt;" style="text;strokeColor=none;align=center;fillColor=none;html=1;verticalAlign=middle;whiteSpace=wrap;rounded=0;" parent="1" vertex="1">
          <mxGeometry x="308.75" y="240" width="30" height="20" as="geometry" />
        </mxCell>
        <mxCell id="mSlookb_PjLfhGO7pwBZ-20" value="" style="sketch=0;outlineConnect=0;fontColor=#232F3E;gradientColor=none;fillColor=#232F3D;strokeColor=none;dashed=0;verticalLabelPosition=bottom;verticalAlign=top;align=center;html=1;fontSize=12;fontStyle=0;aspect=fixed;pointerEvents=1;shape=mxgraph.aws4.alert;" parent="1" vertex="1">
          <mxGeometry x="330" y="286.74" width="26.3" height="23.26" as="geometry" />
        </mxCell>
        <mxCell id="YZ1pkbpL945tZgqLEuoT-6" style="edgeStyle=orthogonalEdgeStyle;rounded=0;orthogonalLoop=1;jettySize=auto;html=1;" parent="1" source="YZ1pkbpL945tZgqLEuoT-4" edge="1">
          <mxGeometry relative="1" as="geometry">
            <mxPoint x="540" y="190" as="targetPoint" />
          </mxGeometry>
        </mxCell>
        <mxCell id="YZ1pkbpL945tZgqLEuoT-4" value="&lt;font style=&quot;font-size: 10px;&quot;&gt;https://&lt;font&gt;backend.com/assign-badge&lt;/font&gt;&lt;/font&gt;" style="rounded=0;whiteSpace=wrap;html=1;" parent="1" vertex="1">
          <mxGeometry x="460" y="110" width="160" height="20" as="geometry" />
        </mxCell>
        <mxCell id="VBV1dPciFrWLVMd7SS0a-1" value="" style="edgeStyle=orthogonalEdgeStyle;rounded=0;orthogonalLoop=1;jettySize=auto;html=1;" edge="1" parent="1" source="YZ1pkbpL945tZgqLEuoT-7" target="mSlookb_PjLfhGO7pwBZ-13">
          <mxGeometry relative="1" as="geometry" />
        </mxCell>
        <mxCell id="YZ1pkbpL945tZgqLEuoT-7" value="" style="sketch=0;pointerEvents=1;shadow=0;dashed=0;html=1;strokeColor=none;fillColor=#505050;labelPosition=center;verticalLabelPosition=bottom;verticalAlign=top;outlineConnect=0;align=center;shape=mxgraph.office.servers.server_side_code;" parent="1" vertex="1">
          <mxGeometry x="460" y="60" width="49" height="50" as="geometry" />
        </mxCell>
        <mxCell id="TOl49SZNEzs7eLtIcmGD-1" value="Students Data" style="shape=table;startSize=30;container=1;collapsible=0;childLayout=tableLayout;strokeColor=default;fontSize=13;gradientColor=none;perimeterSpacing=1;fontStyle=1" parent="1" vertex="1">
          <mxGeometry x="438" y="190" width="192" height="100" as="geometry" />
        </mxCell>
        <mxCell id="TOl49SZNEzs7eLtIcmGD-2" value="" style="shape=tableRow;horizontal=0;startSize=0;swimlaneHead=0;swimlaneBody=0;strokeColor=inherit;top=0;left=0;bottom=0;right=0;collapsible=0;dropTarget=0;fillColor=none;points=[[0,0.5],[1,0.5]];portConstraint=eastwest;fontSize=16;" parent="TOl49SZNEzs7eLtIcmGD-1" vertex="1">
          <mxGeometry y="30" width="192" height="24" as="geometry" />
        </mxCell>
        <mxCell id="TOl49SZNEzs7eLtIcmGD-3" value="&lt;b&gt;&lt;font style=&quot;font-size: 13px;&quot;&gt;name&lt;/font&gt;&lt;/b&gt;" style="shape=partialRectangle;html=1;whiteSpace=wrap;connectable=0;strokeColor=inherit;overflow=hidden;fillColor=none;top=0;left=0;bottom=0;right=0;pointerEvents=1;fontSize=16;" parent="TOl49SZNEzs7eLtIcmGD-2" vertex="1">
          <mxGeometry width="53" height="24" as="geometry">
            <mxRectangle width="53" height="24" as="alternateBounds" />
          </mxGeometry>
        </mxCell>
        <mxCell id="TOl49SZNEzs7eLtIcmGD-4" value="&lt;b&gt;&lt;font style=&quot;font-size: 14px;&quot;&gt;email&lt;/font&gt;&lt;/b&gt;" style="shape=partialRectangle;html=1;whiteSpace=wrap;connectable=0;strokeColor=inherit;overflow=hidden;fillColor=none;top=0;left=0;bottom=0;right=0;pointerEvents=1;fontSize=16;" parent="TOl49SZNEzs7eLtIcmGD-2" vertex="1">
          <mxGeometry x="53" width="69" height="24" as="geometry">
            <mxRectangle width="69" height="24" as="alternateBounds" />
          </mxGeometry>
        </mxCell>
        <mxCell id="TOl49SZNEzs7eLtIcmGD-5" value="&lt;b&gt;&lt;font style=&quot;font-size: 12px;&quot;&gt;isAssigned&lt;/font&gt;&lt;/b&gt;" style="shape=partialRectangle;html=1;whiteSpace=wrap;connectable=0;strokeColor=inherit;overflow=hidden;fillColor=none;top=0;left=0;bottom=0;right=0;pointerEvents=1;fontSize=16;" parent="TOl49SZNEzs7eLtIcmGD-2" vertex="1">
          <mxGeometry x="122" width="70" height="24" as="geometry">
            <mxRectangle width="70" height="24" as="alternateBounds" />
          </mxGeometry>
        </mxCell>
        <mxCell id="TOl49SZNEzs7eLtIcmGD-6" value="" style="shape=tableRow;horizontal=0;startSize=0;swimlaneHead=0;swimlaneBody=0;strokeColor=inherit;top=0;left=0;bottom=0;right=0;collapsible=0;dropTarget=0;fillColor=none;points=[[0,0.5],[1,0.5]];portConstraint=eastwest;fontSize=16;" parent="TOl49SZNEzs7eLtIcmGD-1" vertex="1">
          <mxGeometry y="54" width="192" height="25" as="geometry" />
        </mxCell>
        <mxCell id="TOl49SZNEzs7eLtIcmGD-7" value="user1" style="shape=partialRectangle;html=1;whiteSpace=wrap;connectable=0;strokeColor=inherit;overflow=hidden;fillColor=none;top=0;left=0;bottom=0;right=0;pointerEvents=1;fontSize=13;" parent="TOl49SZNEzs7eLtIcmGD-6" vertex="1">
          <mxGeometry width="53" height="25" as="geometry">
            <mxRectangle width="53" height="25" as="alternateBounds" />
          </mxGeometry>
        </mxCell>
        <mxCell id="TOl49SZNEzs7eLtIcmGD-8" value="user1.com" style="shape=partialRectangle;html=1;whiteSpace=wrap;connectable=0;strokeColor=inherit;overflow=hidden;fillColor=none;top=0;left=0;bottom=0;right=0;pointerEvents=1;fontSize=13;" parent="TOl49SZNEzs7eLtIcmGD-6" vertex="1">
          <mxGeometry x="53" width="69" height="25" as="geometry">
            <mxRectangle width="69" height="25" as="alternateBounds" />
          </mxGeometry>
        </mxCell>
        <mxCell id="TOl49SZNEzs7eLtIcmGD-9" value="false" style="shape=partialRectangle;html=1;whiteSpace=wrap;connectable=0;strokeColor=inherit;overflow=hidden;fillColor=none;top=0;left=0;bottom=0;right=0;pointerEvents=1;fontSize=13;labelBackgroundColor=none;" parent="TOl49SZNEzs7eLtIcmGD-6" vertex="1">
          <mxGeometry x="122" width="70" height="25" as="geometry">
            <mxRectangle width="70" height="25" as="alternateBounds" />
          </mxGeometry>
        </mxCell>
        <mxCell id="TOl49SZNEzs7eLtIcmGD-10" value="" style="shape=tableRow;horizontal=0;startSize=0;swimlaneHead=0;swimlaneBody=0;strokeColor=inherit;top=0;left=0;bottom=0;right=0;collapsible=0;dropTarget=0;fillColor=none;points=[[0,0.5],[1,0.5]];portConstraint=eastwest;fontSize=16;" parent="TOl49SZNEzs7eLtIcmGD-1" vertex="1">
          <mxGeometry y="79" width="192" height="21" as="geometry" />
        </mxCell>
        <mxCell id="TOl49SZNEzs7eLtIcmGD-11" value="user2" style="shape=partialRectangle;html=1;whiteSpace=wrap;connectable=0;strokeColor=inherit;overflow=hidden;fillColor=none;top=0;left=0;bottom=0;right=0;pointerEvents=1;fontSize=13;" parent="TOl49SZNEzs7eLtIcmGD-10" vertex="1">
          <mxGeometry width="53" height="21" as="geometry">
            <mxRectangle width="53" height="21" as="alternateBounds" />
          </mxGeometry>
        </mxCell>
        <mxCell id="TOl49SZNEzs7eLtIcmGD-12" value="&lt;div align=&quot;center&quot;&gt;user2.com&lt;span style=&quot;white-space: pre;&quot;&gt;&#x9;&lt;/span&gt;&lt;/div&gt;" style="shape=partialRectangle;html=1;whiteSpace=wrap;connectable=0;strokeColor=inherit;overflow=hidden;fillColor=none;top=0;left=0;bottom=0;right=0;pointerEvents=1;fontSize=13;align=center;" parent="TOl49SZNEzs7eLtIcmGD-10" vertex="1">
          <mxGeometry x="53" width="69" height="21" as="geometry">
            <mxRectangle width="69" height="21" as="alternateBounds" />
          </mxGeometry>
        </mxCell>
        <mxCell id="TOl49SZNEzs7eLtIcmGD-13" value="false" style="shape=partialRectangle;html=1;whiteSpace=wrap;connectable=0;strokeColor=inherit;overflow=hidden;fillColor=none;top=0;left=0;bottom=0;right=0;pointerEvents=1;fontSize=13;" parent="TOl49SZNEzs7eLtIcmGD-10" vertex="1">
          <mxGeometry x="122" width="70" height="21" as="geometry">
            <mxRectangle width="70" height="21" as="alternateBounds" />
          </mxGeometry>
        </mxCell>
        <mxCell id="TOl49SZNEzs7eLtIcmGD-14" value="&lt;font style=&quot;font-size: 8px;&quot;&gt;Status: 200&lt;/font&gt;" style="text;strokeColor=none;align=center;fillColor=none;html=1;verticalAlign=middle;whiteSpace=wrap;rounded=0;" parent="1" vertex="1">
          <mxGeometry x="540" y="140" width="50" height="20" as="geometry" />
        </mxCell>
        <mxCell id="kpY2GIvG_pTw6zMi-w3f-2" value="error" style="text;strokeColor=none;align=center;fillColor=none;html=1;verticalAlign=middle;whiteSpace=wrap;rounded=0;" vertex="1" parent="1">
          <mxGeometry x="395" y="135" width="60" height="30" as="geometry" />
        </mxCell>
      </root>
    </mxGraphModel>
  </diagram>
  <diagram id="YAX5eilTSyL_kQAmLxaM" name="Page-3">
    <mxGraphModel dx="834" dy="436" grid="1" gridSize="10" guides="1" tooltips="1" connect="1" arrows="1" fold="1" page="1" pageScale="1" pageWidth="850" pageHeight="1100" math="0" shadow="0">
      <root>
        <mxCell id="0" />
        <mxCell id="1" parent="0" />
        <mxCell id="2Z6Ub3m3RSQadIl3EZ4O-2" style="edgeStyle=orthogonalEdgeStyle;rounded=0;orthogonalLoop=1;jettySize=auto;html=1;entryX=0;entryY=0.5;entryDx=0;entryDy=0;" edge="1" parent="1" source="MLO97Jzih_UhhZsadOUr-1" target="2Z6Ub3m3RSQadIl3EZ4O-1">
          <mxGeometry relative="1" as="geometry" />
        </mxCell>
        <mxCell id="MLO97Jzih_UhhZsadOUr-1" value="" style="sketch=0;pointerEvents=1;shadow=0;dashed=0;html=1;strokeColor=none;fillColor=#505050;labelPosition=center;verticalLabelPosition=bottom;verticalAlign=top;outlineConnect=0;align=center;shape=mxgraph.office.servers.server_side_code;" vertex="1" parent="1">
          <mxGeometry x="310" y="180" width="90" height="90" as="geometry" />
        </mxCell>
        <mxCell id="2Z6Ub3m3RSQadIl3EZ4O-1" value="&lt;font style=&quot;font-size: 10px;&quot;&gt;https://&lt;font&gt;backend.com/assign-badge&lt;/font&gt;&lt;/font&gt;" style="rounded=0;whiteSpace=wrap;html=1;" vertex="1" parent="1">
          <mxGeometry x="480" y="150" width="160" height="20" as="geometry" />
        </mxCell>
        <mxCell id="2Z6Ub3m3RSQadIl3EZ4O-4" style="edgeStyle=orthogonalEdgeStyle;rounded=0;orthogonalLoop=1;jettySize=auto;html=1;" edge="1" parent="1" source="2Z6Ub3m3RSQadIl3EZ4O-3" target="MLO97Jzih_UhhZsadOUr-1">
          <mxGeometry relative="1" as="geometry" />
        </mxCell>
        <mxCell id="2Z6Ub3m3RSQadIl3EZ4O-3" value="assign-badge()" style="rounded=0;whiteSpace=wrap;html=1;" vertex="1" parent="1">
          <mxGeometry x="480" y="270" width="160" height="20" as="geometry" />
        </mxCell>
        <mxCell id="2Z6Ub3m3RSQadIl3EZ4O-5" value="&lt;span style=&quot;color: light-dark(rgb(46, 194, 126), rgb(237, 237, 237));&quot;&gt;POST&lt;/span&gt;" style="text;strokeColor=none;align=center;fillColor=none;html=1;verticalAlign=middle;whiteSpace=wrap;rounded=0;" vertex="1" parent="1">
          <mxGeometry x="490" y="140" width="10" as="geometry" />
        </mxCell>
        <mxCell id="2Z6Ub3m3RSQadIl3EZ4O-6" value="&lt;font style=&quot;font-size: 10px;&quot;&gt;&lt;span style=&quot;color: light-dark(rgb(165, 29, 45), rgb(237, 237, 237));&quot;&gt;CRON&lt;/span&gt;&lt;/font&gt;" style="text;strokeColor=none;align=center;fillColor=none;html=1;verticalAlign=middle;whiteSpace=wrap;rounded=0;" vertex="1" parent="1">
          <mxGeometry x="465" y="240" width="60" height="30" as="geometry" />
        </mxCell>
      </root>
    </mxGraphModel>
  </diagram>
  <diagram id="buEhBu-Iy6cynhJ7LcMi" name="Page-4">
    <mxGraphModel grid="1" page="1" gridSize="10" guides="1" tooltips="1" connect="1" arrows="1" fold="1" pageScale="1" pageWidth="850" pageHeight="1100" math="0" shadow="0">
      <root>
        <mxCell id="0" />
        <mxCell id="1" parent="0" />
        <mxCell id="O_tWfJk8PlB1jDOl8A_d-16" style="edgeStyle=orthogonalEdgeStyle;rounded=0;orthogonalLoop=1;jettySize=auto;html=1;" edge="1" parent="1" source="FbOBIlz9AHvFiOAqXMDi-1" target="O_tWfJk8PlB1jDOl8A_d-15">
          <mxGeometry relative="1" as="geometry" />
        </mxCell>
        <mxCell id="FbOBIlz9AHvFiOAqXMDi-1" value="" style="sketch=0;pointerEvents=1;shadow=0;dashed=0;html=1;strokeColor=none;fillColor=#505050;labelPosition=center;verticalLabelPosition=bottom;verticalAlign=top;outlineConnect=0;align=center;shape=mxgraph.office.servers.server_side_code;" vertex="1" parent="1">
          <mxGeometry x="70" y="300" width="120" height="150" as="geometry" />
        </mxCell>
        <mxCell id="O_tWfJk8PlB1jDOl8A_d-1" value="Students Data" style="shape=table;startSize=30;container=1;collapsible=0;childLayout=tableLayout;strokeColor=default;fontSize=13;gradientColor=none;perimeterSpacing=1;fontStyle=1" vertex="1" parent="1">
          <mxGeometry x="450" y="110" width="240" height="120" as="geometry" />
        </mxCell>
        <mxCell id="O_tWfJk8PlB1jDOl8A_d-2" value="" style="shape=tableRow;horizontal=0;startSize=0;swimlaneHead=0;swimlaneBody=0;strokeColor=inherit;top=0;left=0;bottom=0;right=0;collapsible=0;dropTarget=0;fillColor=none;points=[[0,0.5],[1,0.5]];portConstraint=eastwest;fontSize=16;" vertex="1" parent="O_tWfJk8PlB1jDOl8A_d-1">
          <mxGeometry y="30" width="240" height="30" as="geometry" />
        </mxCell>
        <mxCell id="O_tWfJk8PlB1jDOl8A_d-3" value="&lt;b&gt;&lt;font style=&quot;font-size: 13px;&quot;&gt;name&lt;/font&gt;&lt;/b&gt;" style="shape=partialRectangle;html=1;whiteSpace=wrap;connectable=0;strokeColor=inherit;overflow=hidden;fillColor=none;top=0;left=0;bottom=0;right=0;pointerEvents=1;fontSize=16;" vertex="1" parent="O_tWfJk8PlB1jDOl8A_d-2">
          <mxGeometry width="67" height="30" as="geometry">
            <mxRectangle width="67" height="30" as="alternateBounds" />
          </mxGeometry>
        </mxCell>
        <mxCell id="O_tWfJk8PlB1jDOl8A_d-4" value="&lt;b&gt;&lt;font style=&quot;font-size: 14px;&quot;&gt;email&lt;/font&gt;&lt;/b&gt;" style="shape=partialRectangle;html=1;whiteSpace=wrap;connectable=0;strokeColor=inherit;overflow=hidden;fillColor=none;top=0;left=0;bottom=0;right=0;pointerEvents=1;fontSize=16;" vertex="1" parent="O_tWfJk8PlB1jDOl8A_d-2">
          <mxGeometry x="67" width="86" height="30" as="geometry">
            <mxRectangle width="86" height="30" as="alternateBounds" />
          </mxGeometry>
        </mxCell>
        <mxCell id="O_tWfJk8PlB1jDOl8A_d-5" value="&lt;b&gt;&lt;font style=&quot;font-size: 12px;&quot;&gt;isAssigned&lt;/font&gt;&lt;/b&gt;" style="shape=partialRectangle;html=1;whiteSpace=wrap;connectable=0;strokeColor=inherit;overflow=hidden;fillColor=none;top=0;left=0;bottom=0;right=0;pointerEvents=1;fontSize=16;" vertex="1" parent="O_tWfJk8PlB1jDOl8A_d-2">
          <mxGeometry x="153" width="87" height="30" as="geometry">
            <mxRectangle width="87" height="30" as="alternateBounds" />
          </mxGeometry>
        </mxCell>
        <mxCell id="O_tWfJk8PlB1jDOl8A_d-6" value="" style="shape=tableRow;horizontal=0;startSize=0;swimlaneHead=0;swimlaneBody=0;strokeColor=inherit;top=0;left=0;bottom=0;right=0;collapsible=0;dropTarget=0;fillColor=none;points=[[0,0.5],[1,0.5]];portConstraint=eastwest;fontSize=16;" vertex="1" parent="O_tWfJk8PlB1jDOl8A_d-1">
          <mxGeometry y="60" width="240" height="33" as="geometry" />
        </mxCell>
        <mxCell id="O_tWfJk8PlB1jDOl8A_d-7" value="user1" style="shape=partialRectangle;html=1;whiteSpace=wrap;connectable=0;strokeColor=inherit;overflow=hidden;fillColor=none;top=0;left=0;bottom=0;right=0;pointerEvents=1;fontSize=13;" vertex="1" parent="O_tWfJk8PlB1jDOl8A_d-6">
          <mxGeometry width="67" height="33" as="geometry">
            <mxRectangle width="67" height="33" as="alternateBounds" />
          </mxGeometry>
        </mxCell>
        <mxCell id="O_tWfJk8PlB1jDOl8A_d-8" value="user1.com" style="shape=partialRectangle;html=1;whiteSpace=wrap;connectable=0;strokeColor=inherit;overflow=hidden;fillColor=none;top=0;left=0;bottom=0;right=0;pointerEvents=1;fontSize=13;" vertex="1" parent="O_tWfJk8PlB1jDOl8A_d-6">
          <mxGeometry x="67" width="86" height="33" as="geometry">
            <mxRectangle width="86" height="33" as="alternateBounds" />
          </mxGeometry>
        </mxCell>
        <mxCell id="O_tWfJk8PlB1jDOl8A_d-9" value="false" style="shape=partialRectangle;html=1;whiteSpace=wrap;connectable=0;strokeColor=inherit;overflow=hidden;fillColor=none;top=0;left=0;bottom=0;right=0;pointerEvents=1;fontSize=13;labelBackgroundColor=none;" vertex="1" parent="O_tWfJk8PlB1jDOl8A_d-6">
          <mxGeometry x="153" width="87" height="33" as="geometry">
            <mxRectangle width="87" height="33" as="alternateBounds" />
          </mxGeometry>
        </mxCell>
        <mxCell id="O_tWfJk8PlB1jDOl8A_d-10" value="" style="shape=tableRow;horizontal=0;startSize=0;swimlaneHead=0;swimlaneBody=0;strokeColor=inherit;top=0;left=0;bottom=0;right=0;collapsible=0;dropTarget=0;fillColor=none;points=[[0,0.5],[1,0.5]];portConstraint=eastwest;fontSize=16;" vertex="1" parent="O_tWfJk8PlB1jDOl8A_d-1">
          <mxGeometry y="93" width="240" height="27" as="geometry" />
        </mxCell>
        <mxCell id="O_tWfJk8PlB1jDOl8A_d-11" value="user2" style="shape=partialRectangle;html=1;whiteSpace=wrap;connectable=0;strokeColor=inherit;overflow=hidden;fillColor=none;top=0;left=0;bottom=0;right=0;pointerEvents=1;fontSize=13;" vertex="1" parent="O_tWfJk8PlB1jDOl8A_d-10">
          <mxGeometry width="67" height="27" as="geometry">
            <mxRectangle width="67" height="27" as="alternateBounds" />
          </mxGeometry>
        </mxCell>
        <mxCell id="O_tWfJk8PlB1jDOl8A_d-12" value="&lt;div align=&quot;center&quot;&gt;user2.com&lt;span style=&quot;white-space: pre;&quot;&gt;&#x9;&lt;/span&gt;&lt;/div&gt;" style="shape=partialRectangle;html=1;whiteSpace=wrap;connectable=0;strokeColor=inherit;overflow=hidden;fillColor=none;top=0;left=0;bottom=0;right=0;pointerEvents=1;fontSize=13;align=center;" vertex="1" parent="O_tWfJk8PlB1jDOl8A_d-10">
          <mxGeometry x="67" width="86" height="27" as="geometry">
            <mxRectangle width="86" height="27" as="alternateBounds" />
          </mxGeometry>
        </mxCell>
        <mxCell id="O_tWfJk8PlB1jDOl8A_d-13" value="false" style="shape=partialRectangle;html=1;whiteSpace=wrap;connectable=0;strokeColor=inherit;overflow=hidden;fillColor=none;top=0;left=0;bottom=0;right=0;pointerEvents=1;fontSize=13;" vertex="1" parent="O_tWfJk8PlB1jDOl8A_d-10">
          <mxGeometry x="153" width="87" height="27" as="geometry">
            <mxRectangle width="87" height="27" as="alternateBounds" />
          </mxGeometry>
        </mxCell>
        <mxCell id="O_tWfJk8PlB1jDOl8A_d-15" value="&lt;span style=&quot;color: rgb(255, 0, 0);&quot;&gt;CRON JOB&lt;/span&gt;" style="rounded=1;whiteSpace=wrap;html=1;" vertex="1" parent="1">
          <mxGeometry x="270" y="355" width="90" height="40" as="geometry" />
        </mxCell>
        <mxCell id="O_tWfJk8PlB1jDOl8A_d-17" style="edgeStyle=orthogonalEdgeStyle;rounded=0;orthogonalLoop=1;jettySize=auto;html=1;exitX=1;exitY=0.5;exitDx=0;exitDy=0;entryX=0.005;entryY=0.131;entryDx=0;entryDy=0;entryPerimeter=0;" edge="1" parent="1" source="O_tWfJk8PlB1jDOl8A_d-15" target="O_tWfJk8PlB1jDOl8A_d-1">
          <mxGeometry relative="1" as="geometry">
            <Array as="points">
              <mxPoint x="400" y="375" />
              <mxPoint x="400" y="125" />
            </Array>
          </mxGeometry>
        </mxCell>
        <mxCell id="O_tWfJk8PlB1jDOl8A_d-18" value="" style="sketch=0;html=1;aspect=fixed;strokeColor=none;shadow=0;fillColor=#3B8DF1;verticalAlign=top;labelPosition=center;verticalLabelPosition=bottom;shape=mxgraph.gcp2.gear_load" vertex="1" parent="1">
          <mxGeometry x="290" y="300" width="54.35" height="50" as="geometry" />
        </mxCell>
        <mxCell id="iWRcPEY34RKfs6i9tJeQ-4" value="&lt;font style=&quot;font-size: 14px;&quot;&gt;&lt;b&gt;assignBadge()&lt;/b&gt;&lt;/font&gt;" style="text;strokeColor=none;align=center;fillColor=none;html=1;verticalAlign=middle;whiteSpace=wrap;rounded=0;" vertex="1" parent="1">
          <mxGeometry x="530" y="440" width="60" height="30" as="geometry" />
        </mxCell>
        <mxCell id="iWRcPEY34RKfs6i9tJeQ-5" value="" style="outlineConnect=0;dashed=0;verticalLabelPosition=bottom;verticalAlign=top;align=center;html=1;shape=mxgraph.aws3.worker;fillColor=#D9A741;gradientColor=none;" vertex="1" parent="1">
          <mxGeometry x="530" y="364" width="60" height="63" as="geometry" />
        </mxCell>
        <mxCell id="iWRcPEY34RKfs6i9tJeQ-6" style="edgeStyle=orthogonalEdgeStyle;rounded=0;orthogonalLoop=1;jettySize=auto;html=1;entryX=0.458;entryY=0.975;entryDx=0;entryDy=0;entryPerimeter=0;" edge="1" parent="1" source="iWRcPEY34RKfs6i9tJeQ-5" target="O_tWfJk8PlB1jDOl8A_d-10">
          <mxGeometry relative="1" as="geometry" />
        </mxCell>
        <mxCell id="KXUoLoXvQjuSUFGpdNMP-2" style="edgeStyle=orthogonalEdgeStyle;rounded=0;orthogonalLoop=1;jettySize=auto;html=1;entryX=0;entryY=0.5;entryDx=0;entryDy=0;" edge="1" parent="1" source="pFgJLa4WSOEpiVjxz6VF-1" target="KXUoLoXvQjuSUFGpdNMP-1">
          <mxGeometry relative="1" as="geometry" />
        </mxCell>
        <mxCell id="pFgJLa4WSOEpiVjxz6VF-1" value="" style="sketch=0;pointerEvents=1;shadow=0;dashed=0;html=1;strokeColor=none;fillColor=#505050;labelPosition=center;verticalLabelPosition=bottom;verticalAlign=top;outlineConnect=0;align=center;shape=mxgraph.office.servers.server_side_code;" vertex="1" parent="1">
          <mxGeometry x="120" y="800" width="90" height="110" as="geometry" />
        </mxCell>
        <mxCell id="KXUoLoXvQjuSUFGpdNMP-1" value="&lt;font style=&quot;font-size: 11px;&quot;&gt;https://&lt;font&gt;backend.com/assign-badge&lt;/font&gt;&lt;/font&gt;" style="rounded=0;whiteSpace=wrap;html=1;" vertex="1" parent="1">
          <mxGeometry x="320" y="845" width="190" height="20" as="geometry" />
        </mxCell>
        <mxCell id="KXUoLoXvQjuSUFGpdNMP-3" value="" style="html=1;verticalLabelPosition=bottom;align=center;labelBackgroundColor=#ffffff;verticalAlign=top;strokeWidth=2;strokeColor=#0080F0;shadow=0;dashed=0;shape=mxgraph.ios7.icons.mail;" vertex="1" parent="1">
          <mxGeometry x="260" y="920" width="50" height="30" as="geometry" />
        </mxCell>
        <mxCell id="KXUoLoXvQjuSUFGpdNMP-5" value="" style="image;aspect=fixed;html=1;points=[];align=center;fontSize=12;image=img/lib/azure2/general/Globe_Error.svg;" vertex="1" parent="1">
          <mxGeometry x="360" y="778.44" width="40.35" height="47.56" as="geometry" />
        </mxCell>
        <mxCell id="KXUoLoXvQjuSUFGpdNMP-6" style="edgeStyle=orthogonalEdgeStyle;rounded=0;orthogonalLoop=1;jettySize=auto;html=1;" edge="1" parent="1" source="pFgJLa4WSOEpiVjxz6VF-1">
          <mxGeometry relative="1" as="geometry">
            <mxPoint x="290" y="920" as="targetPoint" />
          </mxGeometry>
        </mxCell>
        <mxCell id="KXUoLoXvQjuSUFGpdNMP-10" value="" style="rounded=1;whiteSpace=wrap;html=1;" vertex="1" parent="1">
          <mxGeometry x="320" y="920" width="220" height="100" as="geometry" />
        </mxCell>
        <mxCell id="KXUoLoXvQjuSUFGpdNMP-11" value="&lt;font style=&quot;font-size: 9px;&quot;&gt;&lt;b&gt;Error&lt;/b&gt;: There is not issuer with provided key&lt;/font&gt;" style="text;strokeColor=none;align=center;fillColor=none;html=1;verticalAlign=middle;whiteSpace=wrap;rounded=0;" vertex="1" parent="1">
          <mxGeometry x="300" y="955" width="240" height="30" as="geometry" />
        </mxCell>
        <mxCell id="KXUoLoXvQjuSUFGpdNMP-13" value="" style="shape=image;verticalLabelPosition=bottom;labelBackgroundColor=default;verticalAlign=top;aspect=fixed;imageAspect=0;editableCssRules=.*;image=data:image/svg+xml,PHN2ZyB3aWR0aD0iODguMjU3OTkyNDk5MDY1MTgiIGhlaWdodD0iOTUuODQ1OTM3NzE2MzM4MTEiIHZpZXdCb3g9IjQuMjEzNjc2NDUyNjM2NzE5IDIuMDc5MTMzMDMzNzUyNDQxNCA2MS43ODA1OTM4NzIwNzAzMSA2Ny4wOTIxNDc4MjcxNDg0NCIgdmVyc2lvbj0iMS4xIiBpZD0ic3ZnOCIgeG1sbnM9Imh0dHA6Ly93d3cudzMub3JnLzIwMDAvc3ZnIj4mI3hhOyAgPGRlZnMgaWQ9ImRlZnMyIi8+JiN4YTsgIDxnIGlkPSJsYXllcjEiIHRyYW5zZm9ybT0idHJhbnNsYXRlKC0xMDQuMjI3ODUsLTQ1LjUwNzkyMykiPiYjeGE7ICAgIDxwYXRoIHN0eWxlPSJmaWxsOiMzYjgyZjY7c3Ryb2tlLXdpZHRoOjAuMzUyNzc3NzUiIGQ9Im0gMTIyLjk5NDAxLDExNC4xODk4NSBjIC00LjMyODk3LC0wLjk0MDQgLTcuNTgwNDQsLTMuNDc4NDggLTguNzEyNTEsLTYuODAwOTUgLTAuNzg5MjEsLTIuMzE2MTggLTAuNjc2ODIsLTYuMDcyMzggMC4zMzM2MywtMTEuMTUwNTk4IDAuNDg1MDcsLTIuNDM3ODM2IDAuODgxNjksLTUuMzQ3ODQzIDAuODgxMzksLTYuNDY2Njg4IC05LjhlLTQsLTMuNzE4MDk4IC0xLjcxMTA2LC01LjczNTQxOCAtNS4xMDAxLC02LjAxNjQ2MiBsIC0xLjk1NDksLTAuMTYyMTE2IHYgLTIuMzkyNjU1IC0yLjM5MjY1NyBsIDEuODUyMDgsLTAuMjUwODU1IGMgMi43MDI0MywtMC4zNjYwMzEgMy43NDQ0MSwtMS4wMjgzOCA0LjU3NjI5LC0yLjkwODk4NCAwLjYxMTIxLC0xLjM4MTcyNiAwLjY4ODg0LC0yLjA2ODY0OCAwLjUwNTUyLC00LjQ3Mjg2OSAtMC4xMTkxMywtMS41NjIyNDQgLTAuNTM1MjcsLTQuMzQ4NTY4IC0wLjkyNDc3LC02LjE5MTgzMiAtMC45ODk1NCwtNC42ODI4NjggLTAuOTQ4MjIsLTguNDg1NDcxIDAuMTE3MDcsLTEwLjc3MzE2MyAxLjU2ODYyLC0zLjM2ODU4OSA1LjQzNzA1LC01Ljg1NDU1MyA5LjkzMjQ4LC02LjM4MjkwMyBsIDEuOTMyOTksLTAuMjI3MTg1IHYgMi41MTgwMTUgMi41MTgwMTUgaCAtMS4yOTk3MyBjIC0xLjc3MTg2LDAgLTQuMjQ5NywxLjI2MjQxMyAtNC44ODM1LDIuNDg4MDU0IC0wLjYwNzk3LDEuMTc1Njc0IC0wLjY1NDA1LDIuODY0MTQ2IC0wLjE1ODM0LDUuODAyMjIzIDAuNzgzNDMsNC42NDM1MDggMS4wNDcwNyw5LjA5ODM0NCAwLjY3NTkyLDExLjQyMTYzNiAtMC40MjQ2NCwyLjY1ODE0MiAtMS45NzQ3Nyw1Ljc5NjMyOCAtMy42NzkxLDcuNDQ4MjM2IGwgLTEuMTgwMTIsMS4xNDM4MTMgMS42MTQ5NywxLjk4Mjc1MiBjIDEuOTkwNTEsMi40NDM4MDEgMi43NjQ1OCw0LjE0ODc0NCAzLjI0Mjg0LDcuMTQyNTYxIDAuMzc4MzUsMi4zNjgzNDEgMC4wODQ0LDcuMjgyNjczIC0wLjY3MDcyLDExLjIxMzk4MiAtMS4wNTM1OSw1LjQ4NTE0IDAuMTYyMyw3LjY1MTQxIDQuNjYyMDksOC4zMDYxMyBsIDEuNjc1NjksMC4yNDM4MiB2IDIuNDQ3ODIgYyAwLDIuNzkyMTEgMC4xNzA4NiwyLjY5NzA4IC0zLjQzOTE3LDEuOTEyODYgeiIgaWQ9InBhdGg0NTQ0Ii8+JiN4YTsgICAgPHBhdGggc3R5bGU9ImZpbGw6IzNiODJmNjtzdHJva2Utd2lkdGg6MC4zNTI3Nzc3OCIgZD0ibSAxNTIuMjMwNCwxMTIuMjQ5MzIgdiAtMi40Mjk4NyBsIDIuMDQ5NjksLTAuNDIzMzYgYyAyLjI2Mjc2LC0wLjQ2NzM2IDQuMDU0LC0xLjg2MzQgNC40NTg0MiwtMy40NzQ3NSAwLjEyNzQsLTAuNTA3NTggLTAuMTEyNjcsLTMuMTYzOTggLTAuNTMzNDcsLTUuOTAzMTEgLTEuMzcxODMsLTguOTI5NTUyIC0wLjYxMTQsLTEzLjUzNzA0MiAyLjg1NDgyLC0xNy4yOTc0NTIgbCAxLjQ4MjM3LC0xLjYwODE4IC0xLjExMDgsLTEuMjY1MTIgYyAtMy45Nzg1NSwtNC41MzEzMiAtNC42Njg4NSwtOC41NTIyMDggLTMuMTUzNjQsLTE4LjM2OTU0NyAwLjc2MzQyLC00Ljk0NjMwNSAwLjc2NDA5LC00Ljk5NDMyMiAwLjA4NywtNi4xNzM2MTEgLTAuNzk3MTMsLTEuMzg4Mjc4IC0zLjI4Mzg1LC0yLjc3NjAzMyAtNC45NzQzOCwtMi43NzYwMzMgaCAtMS4xNTk5NyB2IC0yLjQ2OTQ0NSBjIDAsLTIuODExMDU3IC0wLjA1ODMsLTIuNzczODQ2IDMuMjQ1ODMsLTIuMDcyNzg4IDMuOTY0NSwwLjg0MTE3OSA2LjgwNDQ4LDIuODUzMjcyIDguMjc3ODcsNS44NjQ3NzUgMC44NDU0NCwxLjcyODAyNiAwLjk3Mjc1LDIuNDAwMTM2IDAuOTQ5MTEsNS4wMTA4ODkgLTAuMDE1LDEuNjU4MzQ5IC0wLjM1NzU4LDQuNjgyMDU0IC0wLjc2MTI1LDYuNzE5MzQ2IC0xLjQ5ODY3LDcuNTYzNTk0IC0xLjM2NTEsOS41NzYyMDQgMC43NjU0LDExLjUzMjgxNCAwLjk4OTE1LDAuOTA4NDIgMS42NDAxMiwxLjE3Mjc0IDMuMzcwMzIsMS4zNjg0OSBsIDIuMTQ0MzksMC4yNDI2MSB2IDIuNDIzODcgMi40MjM4OCBsIC0xLjY3NTcsNy4xZS00IGMgLTIuMTUxNyw3ZS00IC0zLjkzMjMsMC45MDkyNCAtNC44Mzg2OSwyLjQ2ODg5IC0wLjk1MTk0LDEuNjM4MDMgLTAuODkyMzksNS4yMDY3NSAwLjE3MzY0LDEwLjQwNjk1IDAuOTA2NDgsNC40MjE5MDIgMS4wNTI1Myw4LjQ1ODQ1MiAwLjM4ODIsMTAuNzI4NzUyIC0wLjcwMDU5LDIuMzk0MDYgLTMuODE5OTUsNS4yOTYwOSAtNi43NDc0NSw2LjI3NzE4IC0xLjI2MTE4LDAuNDIyNjYgLTIuOTY3NzUsMC44NzA5NiAtMy43OTIzNiwwLjk5NjIzIGwgLTEuNDk5MzEsMC4yMjc3NSB6IiBpZD0icGF0aDQ1NDYiLz4mI3hhOyAgICA8cGF0aCBzdHlsZT0iZmlsbDojM2I4MmY2O3N0cm9rZS13aWR0aDowLjM1Mjc3Nzc1IiBkPSJtIDEzMS43NDIzOSwxMDguMjY1OTIgYyAtMS4wMjE2MywtMS4yOTg4IC0wLjg3Mjk0LC0zLjUzNjUyIDAuMzgwODcsLTUuNzMxODUgMC45Mjc3NiwtMS42MjQ0NiA0LjgwODYyLC02Ljk0ODU0OSA3LjYxMDY2LC0xMC40NDA5NDkgbCAxLjEzMDk0LC0xLjQwOTU4IC0xLjgwMjEzLC01LjIyNTIzIGMgLTIuMDIxNDcsLTUuODYxMjMgLTIuMDA5OCwtNS45NzQ2NyAwLjY1NTgxLC02LjM3MjI1IGwgMS40NjgzNCwtMC4yMTkgMS42NDA3NiwzLjM1MDYgYyAwLjkwMjQyLDEuODQyODMgMS43Njk4MiwzLjM1MDYxIDEuOTI3NTUsMy4zNTA2MSAwLjE1Nzc0LDAgMS43NzQ4OSwtMS43NTU0MiAzLjU5MzY4LC0zLjkwMDkyIDMuMTU5MTgsLTMuNzI2NjcgMy4zNTY4OCwtMy44OTE2NSA0LjQyNTkxLC0zLjY5MzM0IDAuNjQ1NTIsMC4xMTk3NCAxLjIxODU4LDAuMDQ2NSAxLjM1NDMyLC0wLjE3MzE2IDAuMzE4MTgsLTAuNTE0ODEgMS4yMzA4MywwLjI0NzA0IDEuMjMwODMsMS4wMjc0NiAwLDAuMzIwMDkgLTAuNDU0MzgsMS4xMzQwOSAtMS4wMDk3MiwxLjgwODg4IC0yLjI2NzcxLDIuNzU1NDkgLTcuMTA0MTcsOS4yNzE1NSAtNy4xMDQxNyw5LjU3MTMgMCwwLjE3Njg1IDAuOTc1MDIsMi40NTMwMiAyLjE2NjcxLDUuMDU4MTYgbCAyLjE2NjcsNC43MzY2MDkgLTAuNjU4MjMsMC45ODQ1OSBjIC0wLjM2MjAzLDAuNTQxNTIgLTAuNjYyMzYsMS4xMjYwMyAtMC42Njc0LDEuMjk4OTEgLTAuMDA1LDAuMTcyODggLTAuMjc3NjksMC40ODM3MSAtMC42MDU4OCwwLjY5MDczIC0wLjgzMTc0LDAuNTI0NjQgLTEuNDQ2NTYsLTAuMTE1NDEgLTMuOTg5NCwtNC4xNTMxMTkgLTEuMTY0MTcsLTEuODQ4NTYgLTIuMjMxNjMsLTMuMzY0OTEgLTIuMzcyMTUsLTMuMzY5NjcgLTAuMzEzMDksLTAuMDEwNiAtMy43OTExLDUuMTMxOTY5IC02LjQ3OTU1LDkuNTgwNjM5IC0yLjM3MDkzLDMuOTIzMjQgLTEuOTM4ODUsMy40MjA0IC0zLjI2NjE0LDMuODAxMDYgLTAuOTU1MzMsMC4yNzM5OCAtMS4xOTM0OCwwLjE5ODQzIC0xLjc5ODMxLC0wLjU3MDQ4IHoiIGlkPSJwYXRoNDU0OCIvPiYjeGE7ICAgIDxwYXRoIHN0eWxlPSJmaWxsOiMzYjgyZjY7c3Ryb2tlLXdpZHRoOjAuMzUyNzc3NzUiIGQ9Im0gMTMxLjk4NTY3LDgzLjY3NzA5MSBjIC0yLjE1MTQ4LC0zLjg0NzIgLTYuMDE4MywtOS40MjgyOSAtNy41Nzg0MiwtMTAuOTM4MTUgLTAuNzkyNTIsLTAuNzY2OTggLTEuNDQwOTQsLTEuNTc0OTQgLTEuNDQwOTQsLTEuNzk1NDYgMCwtMC42MDE2IDEuNjE2OTUsLTEuMjE5NzUgMy4xOTA1OCwtMS4yMTk3NSAxLjY5ODIyLDAgMy40OTU5NywxLjQ3Nzc3IDUuMDk5Nyw0LjE5MjAzIDAuNTgyMDgsMC45ODUxNSAxLjE1NjQxLDEuNzk0MzQgMS4yNzYyOSwxLjc5ODE5IDAuMTE5ODgsMC4wMDQgMC44MDg3MywtMS42NTExNiAxLjUzMDc4LC0zLjY3Nzc5IDEuNTQ2NCwtNC4zNDAzOSA1LjYyMzUxLC0xMi43Nzc5OTkgNy4yMjQ1MywtMTQuOTUxMjI5IDEuMzcyNiwtMS44NjMxNiAzLjQyOTM2LC0yLjg2NTE2NSA1LjkwMjc0LC0yLjg3NTY3NiAzLjIzMzc1LC0wLjAxMzc0IDMuMjQyNjgsMC4xMzAwNjcgMC4yMDQ3NCwzLjI5NjY2MyAtNC42MzU5OSw0LjgzMjMyNyAtNi43NjMyMSw4LjgwOTYzMiAtMTEuMjUxNTUsMjEuMDM3MjUyIC0xLjI0NjM3LDMuMzk1NDkgLTIuMzkwMzIsNi40Nzg5NSAtMi41NDIxMiw2Ljg1MjE0IC0wLjIzMDIyLDAuNTY1OTcgLTAuNDk4MzMsMC4yODA5NiAtMS42MTYzMywtMS43MTgyMiB6IiBpZD0icGF0aDQ1NTAiLz4mI3hhOyAgPC9nPiYjeGE7PC9zdmc+;" vertex="1" parent="1">
          <mxGeometry x="332.5" y="930" width="18.33" height="20" as="geometry" />
        </mxCell>
        <mxCell id="KXUoLoXvQjuSUFGpdNMP-14" value="&lt;font style=&quot;font-size: 10px;&quot;&gt;json-schema@gmail.com&lt;/font&gt;" style="text;strokeColor=none;align=center;fillColor=none;html=1;verticalAlign=middle;whiteSpace=wrap;rounded=0;" vertex="1" parent="1">
          <mxGeometry x="340" y="925" width="150" height="30" as="geometry" />
        </mxCell>
        <mxCell id="KXUoLoXvQjuSUFGpdNMP-15" value="&lt;font style=&quot;font-size: 9px;&quot;&gt;&lt;b&gt;Timestamps&lt;/b&gt; 22 March Sunday , 16:75&lt;/font&gt;" style="text;strokeColor=none;align=center;fillColor=none;html=1;verticalAlign=middle;whiteSpace=wrap;rounded=0;" vertex="1" parent="1">
          <mxGeometry x="290" y="970" width="240" height="30" as="geometry" />
        </mxCell>
        <mxCell id="KXUoLoXvQjuSUFGpdNMP-16" value="&lt;font style=&quot;font-size: 9px;&quot;&gt;&lt;b&gt;&amp;nbsp;&amp;nbsp;&amp;nbsp;&amp;nbsp; Source:&lt;/b&gt; https://badge.api/error&lt;/font&gt;" style="text;strokeColor=none;align=center;fillColor=none;html=1;verticalAlign=middle;whiteSpace=wrap;rounded=0;" vertex="1" parent="1">
          <mxGeometry x="270" y="985" width="240" height="30" as="geometry" />
        </mxCell>
      </root>
    </mxGraphModel>
  </diagram>
  <diagram id="hnuc25zTXZeOCk9NF8rJ" name="Page-5">
    <mxGraphModel dx="4032" dy="2180" grid="1" gridSize="10" guides="1" tooltips="1" connect="1" arrows="1" fold="1" page="1" pageScale="1" pageWidth="850" pageHeight="1100" math="0" shadow="0">
      <root>
        <mxCell id="0" />
        <mxCell id="1" parent="0" />
      </root>
    </mxGraphModel>
  </diagram>
</mxfile>
